<?xml version="1.0" encoding="utf-8"?>
<!-- Generator: Adobe Illustrator 17.0.1, SVG Export Plug-In . SVG Version: 6.00 Build 0)  -->
<!DOCTYPE svg PUBLIC "-//W3C//DTD SVG 1.1//EN" "http://www.w3.org/Graphics/SVG/1.1/DTD/svg11.dtd">         


 <svg xmlns="http://www.w3.org/2000/svg" version="1.1" xmlns:xlink="http://www.w3.org/1999/xlink" xmlns:svgjs="http://svgjs.com/svgjs" height="100%" width="100%" viewBox="0 0 300 300"><g id="svg-container" transform="matrix(2.51,0,0,2.51,139.93148582458497,90.75265494823456)"><g id="surrounding_shape" transform="matrix(1,0,0,1,-48.08592700958252,-5.426778144836426)"><svg version="1.0" xmlns="http://www.w3.org/2000/svg" viewBox="0 0 1500 1507" fill-type="outline" width="58.06749268733039" height="58.06749268733039" data-shape-id="1211434" fill="#ff0000" surrounded-groups="symbols" id="surrounding_shape_0"><path d="M663 1c-1.9.5-9.1 1.6-16 2.5-6.9.9-18.4 3-25.7 4.6-7.2 1.6-15.6 3.2-18.7 3.5-5.3.6-5.6.8-5.6 3.4 0 2.6-.3 2.8-8.4 4.4-9.2 1.8-36.2 10.1-44 13.5-4.2 1.8-4.7 2.4-4.2 4.5.5 2.2-.1 2.5-10.7 5.9-11.5 3.8-46 12.3-60.2 15-14.4 2.6-33.9 11.9-58.6 27.7-6.1 4-16.4 9.7-22.8 12.7-6.4 3-12.3 5.9-13.1 6.4-.8.5-3.4 2.1-5.8 3.5-4.9 3-18.2 7.9-34.1 12.5-12.6 3.7-14.2 4.6-11.3 7 2.1 1.6 2.1 1.6-.9 3.8-2.4 1.8-2.8 2.5-1.8 3.7.6.8 1.8 1.4 2.6 1.4 1.8 0-4.2 7.9-6.6 8.7-5.4 1.7-8.1 3.3-14.5 8.5-3.9 3.2-9.1 6.6-11.6 7.5-3.4 1.3-7.7 4.9-17.3 14.8-12.6 12.7-21.7 23.6-21.7 25.9 0 .6-1.9 2.2-4.1 3.6-2.3 1.4-7.4 6-11.4 10.2-7 7.4-7.4 7.7-10.9 7.1l-3.6-.6-5.5 11.7c-5.4 11.5-5.6 11.6-11 14.3-3 1.5-5.8 2.4-6.2 2-.4-.4-.1-2.3.6-4.3s1.1-3.7.9-3.9c-.5-.5-23.6 34.1-27.6 41.3-2.1 3.8-3.1 4.9-3.5 3.8-.4-.9-1-1.6-1.5-1.6-.4 0-3.3 4.4-6.3 9.7-4.2 7.7-7.9 12.4-17 21.8-18.9 19.7-36.4 46-66.1 99.5-22.1 39.8-24.4 44.3-21.9 43.5 3.3-1 2.6 1.1-2.8 8.9-6.5 9.5-8.1 12.9-8.1 16.9 0 2.3-.8 4.1-2.5 5.7l-2.5 2.3v-2.9c0-1.9-1.9 2-5.4 11.1-3 7.7-6.5 16.6-7.9 19.7-3.2 7-5.3 15.1-6.2 24.3-.7 6.1-.9 6.7-1.7 4.2-1.4-4-2.5-3.3-3.2 2-.9 7-2.6 9-2.6 3.3 0-6.7-1.6-3.3-3.6 7.8-2.3 12.7-1 18.8 5 24.9 4.1 4.1 4.2 4.2 2.9 7.8-2.8 8.1-4.1 17.9-3.3 23.9.7 4.9.6 6.3-.8 8.2-2.7 3.7-3.5 2.8-2.7-3.4 1.2-9.5-.5-5.2-3.5 9-3.7 17.4-6.4 40-5.6 46.9.9 8 .6 25.7-.5 30.9-.5 2.5-1.2 13.3-1.4 24-.2 10.7-.1 18.5.1 17.2.7-2.8 2-2.8 2.8.1 1 3.7.7 28.3-.5 38.3-.9 7.3-.8 11.5.2 18.7.7 5 1.4 15.9 1.6 24l.4 14.9 2.6-1.7c2.3-1.6 2.7-1.6 4.2-.1 1.3 1.4 1.7 5.4 2.2 25.9.6 21.5 1.5 29.7 3.6 34.7.4 1 .9.3 1.3-2 .6-2.8.8-2 .9 3.6 0 3.9-1 13.6-2.4 21.5S15 947.1 15 949l-.1 3.5-1.9-4-2-4 .6 6.5c.9 9.7 2.4 13.5 5.4 13.7 1.4 0 3.1.1 3.7.2.7.1 2.4 2.4 3.8 5.1l2.6 5.1-3.7 1.5-3.6 1.5.6 5.2c1.1 8 3.9 14.9 12.5 30.1 11.2 20 12.7 23.4 17.1 36.3 3.7 11.1 3.9 11.4 4.5 7.9.7-3.6.8-3.7 2.7-1.9 2.7 2.3 4.6 6.9 10.8 25.5 6.3 19 12.6 32.1 18 37.7 2.3 2.4 3.2 3.7 2 3.1-3.5-1.9-3.7-.1-.4 3 1.8 1.5 8.6 10.1 15.2 19.1 6.6 9 14.5 18.9 17.6 21.9 4.7 4.5 5.6 6 5.6 9 0 7.6 8.2 19.8 26.3 38.9 22 23.2 25.7 28.3 23.7 32.1-.8 1.6 1.3 4.2 14.6 17.9 8.6 8.9 15 16.1 14.3 16.1-2 0 10.6 12.4 19.6 19.2 4.4 3.4 10.8 7.4 14.2 9 3.5 1.5 6.3 3.3 6.3 3.8s-.7.7-1.6.3c-2.8-1.1-.1 2.7 6.8 9.3 14.6 14.1 30.8 25.5 48 33.8 10.1 4.8 10.8 5.3 10.9 8.1 0 2.5 1 3.7 5.9 7 3.3 2.2 13.2 9.5 22 16.3 15.3 11.7 42.8 28.3 51.7 31.3 2.1.7 3 1.5 2.6 2.5-.3.8.1 1.4.8 1.4 2.1 0 25 11.4 44.9 22.2 19 10.4 33.7 17.3 45.8 21.6 6.9 2.4 9.3 2.7 22.2 2.8 8 .1 19.4.9 25.4 1.8s11.1 1.4 11.3 1.2c.2-.2-2.6-1.4-6.2-2.7-9.1-3.2-10-4.6-3.5-5.5 2.8-.4 5.4-1.3 5.7-2 .5-1.5 7.6.7 16 4.9 8.3 4.2 7.8 4.9-1.7 2.6-1-.3-1.5.3-1.5 1.6 0 2.6 5.9 5.4 19 8.9 15.8 4.3 25.4 7.7 26.2 9.1 1.1 1.8 38.2 8.4 70.8 12.4 42.6 5.3 47.6 5.6 97.5 5.5 26.1 0 50.4-.5 54-1l6.5-.9-4-2.8c-2.2-1.5-3.5-2.7-3-2.7.6-.1 5.8-.7 11.7-1.3 11-1.3 17.2-.7 13.6 1.4-1 .6-4 1.3-6.8 1.6-6.1.7-6.6 2.3-.7 2.3 5.8 0 13.7-2.4 21.8-6.7 5.6-2.9 7.5-3.4 12-3.1l5.4.3-8.2 3.9c-4.6 2.1-8.3 4.3-8.3 4.8s.8.7 1.8.4c.9-.3 4.6-1 8-1.7 3.5-.7 6.6-1.8 6.9-2.4.6-1.8 10.3-6 21.1-9 9.1-2.7 10.1-2.7 20.2-1 2.3.4 6.7-.2 12.5-1.8 5-1.4 13.7-3.7 19.4-5.3 10.8-2.9 11.4-4.1 2.1-4.4l-4.5-.1 9.3-3.6c5.2-2.1 9.2-4.2 9.2-5 0-.7 1.1-1.3 2.5-1.3 4.6 0 17.2-3 30.1-7.1 16.4-5.2 38.2-14.4 62.6-26.3 10.8-5.3 20.1-9.6 20.7-9.6.5 0 5.4-3.3 10.8-7.3s14.8-10.2 20.8-13.7c6.1-3.5 14.4-8.6 18.5-11.2 7.1-4.5 7.3-4.8 4.3-4.8-5 0-3.9-2.8 3-7.4 3.7-2.4 3.9-2.4 5.7-.6 1.4 1.4 2.5 1.7 5.2 1 5.3-1.2 6.6-1.9 20.8-10.3 7.4-4.4 16.7-9.3 20.5-10.8 3.9-1.6 6.3-2.8 5.6-2.9-1.9 0 2.8-4.9 14.6-15.2 10.1-8.7 14.7-14.6 13.7-17.1-.7-1.9 2-2.4 3.1-.7.3.5 1.7 1 3.1 1 1.9 0 8.2-5.5 26.2-22.9 13-12.6 26.3-25 29.5-27.6 11.6-9.4 49.7-52.1 49.7-55.8 0-.4-1.1-.7-2.5-.7-3.6 0-3.2-3.4.8-6.3 19.8-14.4 21.6-15.9 22.6-18.9.6-1.7 1.1-4.4 1.1-6 0-4.2 2.3-9 6.7-13.9 3-3.3 3.3-3.9 1.4-2.9-3.5 1.8-2.9.7 10.2-18.6 38.4-56.8 55.1-96.2 93.2-219.4 7.9-25.6 14.7-47.3 15-48.3 1.2-3-1.1-1.8-2.8 1.5-1.4 2.8-1.6 2.9-1.2.8 1.6-9.7 1.6-11.3.1-10.1-1.1 1-1.9.9-3.4 0-1.9-1.2-1.9-1.4 1-12.3 7.7-29.2 7.9-30.1 6.6-33.6-.8-2.3-.9-8.6-.5-20.7.4-11 .3-19.2-.4-22.4-1.5-6.7-3.3-6.4-2.7.5.4 4.9.3 5.3-1.2 4.3-2.8-1.7-4.7-.2-9.6 7.5-8.5 13.3-9.9 15.1-12.4 16.1-2.4.9-2.5 1.2-2.2 9.2.4 7.6 0 9.6-4.3 23.5-6.5 21.2-8.7 32.5-8.3 43.3.2 4.8.2 8.7 0 8.7-.1 0-.7-1.2-1.3-2.7-1.6-4.1-3-1.5-1.8 3.5.6 3 .6 6.4-.1 10.5-1.4 7.9-4 17.1-5 17.7-.5.3-1.8 4.3-3 9-2.5 10.2-11.1 36.7-15 46.5-1.6 3.8-9 19.6-16.4 34.9-7.5 15.4-13.6 28.6-13.6 29.3 0 1.1.4 1.1 2.2.2 1.8-1 2-.9 1.5.6-.6 1.4-4.4 7.2-9.2 14.1-.7.9-.6 2 .1 3.2.9 1.4-.5 4.8-8.4 19.1-12.3 22.8-21.6 36.8-26.8 40.6-5.9 4.2-9.7 12.3-5.4 11.2 2-.5 2-.4.3 2.5-1 1.7-3.1 3.5-4.7 4.1-2.5.9-2.8 1.3-2.3 4.2.4 2.7 0 4-2.7 7.2-1.9 2.1-5.3 4.9-7.7 6.2-3.7 2.1-4.2 2.1-2.8.5 2.5-2.8 5.1-8.4 4-8.4-1.3 0-8 8.2-13.2 16.2-5.6 8.6-13.5 20.6-15.6 23.8l-1.7 2.5 2.9-2.5c2.1-1.9 1.7-1-1.7 3.6-15.3 20.1-40.1 47.8-71.2 79.2-18.4 18.5-25.7 26.5-24.8 27.1 2.1 1.3-9.4 11-26.8 22.6-24.4 16.3-27.2 18.3-32.5 23.4-8.6 8.2-13.4 11.4-18.4 12.2-2.5.4-5.9 1.1-7.6 1.5-2.7.7-2.9.6-1.6-.9 3-3.7-1-1.3-10.9 6.6-5.8 4.6-12.5 10.9-14.9 14.1-6.2 8-9.6 10.6-13.8 10.6-2.8 0-4.4.8-7.7 4.2-5 5.1-15.9 12.3-16.4 10.9-.2-.6-1.6-1.1-3.1-1.1-3.9 0-4.4-1-1.9-3.7 1.2-1.2 1.9-2.5 1.7-2.7-1.2-1.2-23.5 7.5-41.9 16.4-22 10.7-27.5 12.5-34.6 11.7-4-.4-4.7-.2-6.1 2-1.2 1.7-1.3 2.7-.5 3.5 1.4 1.4 11-.4 21.1-4.1 9.4-3.5 13.4-2.9 7.4 1.1-15.3 10.1-28.5 13.5-45.5 11.7-8.1-.9-13-.9-20.5.1-5.4.6-12.5 1.3-15.8 1.5-3.3.2-10.7 2-16.4 4-6.9 2.3-12.4 3.5-15.8 3.5-3.7 0-6.2.6-8.1 2-1.5 1-4 2.2-5.7 2.5l-3 .6 3-1.6c2.9-1.5 2.8-1.5-3.6-1-3.7.3-8.8 1.2-11.5 1.9-10.2 2.9-10.6 2.9-9.9.5l.7-2.2-2.8 2c-6.1 4.1-16.3 6.2-30.5 6.3-4.2 0-11 .9-15.4 2-9.3 2.4-8.6 2.3-7.9.5.8-1.9-.7-1.9-7 0-7.3 2.2-8.7 1.7-3.3-1.1 2.7-1.4 4.7-2.7 4.5-2.9-.2-.2-2.1 0-4.3.5-5.7 1.4-14.5 1.2-26-.5-5.5-.8-13.4-1.4-17.5-1.3l-7.5.1 9.4.8c5.2.5 9.6 1.1 9.9 1.4.3.2.5 2 .6 3.9l.1 3.4-6.2.6c-9.3 1-18.5-.9-29.3-5.9-5.2-2.4-12.6-5-16.5-5.8-7.9-1.7-20.5-3.1-20.5-2.3 0 .3 2.7 1 6 1.7 6.4 1.2 11.4 3.8 7.5 3.9-3 0-17.1-3.6-25-6.4-6.9-2.5-20.5-3.7-20.5-1.8 0 .5 1.6 1.6 3.5 2.5 1.9.9 3.5 2.1 3.5 2.7 0 1.3-.1 1.3-4.5-.6-3.2-1.3-6.1-1.4-16.6-.9l-12.7.7-.4-2.3c-.3-2.1-1.2-2.6-7.8-4.1-9.9-2.1-15.2-2.2-18.8-.1-2.7 1.6-3.7 1.6-9.4.4-8.3-1.7-9.1-2.7-2.9-3.5 9.5-1.3 10.3-2.2 3-3.5-3.6-.6-7.9-1.1-9.5-1.1l-2.9-.1 2.4-2c1.3-1.1 2.2-2.1 2-2.3-.2-.1-4.1-.8-8.7-1.5-11.3-1.7-22.2-4.6-30-8.1-3.5-1.7-6.6-3-6.8-3-.2 0-.4.9-.4 2 0 2.9-5.7 3.6-13.8 1.6-7.1-1.7-11.3-4-10.9-5.8.1-.6-2.3-2.2-5.3-3.5l-5.5-2.4 5.4.5c3.3.3 7.1 1.6 10 3.3 2.5 1.5 5.3 2.6 6.1 2.5 4.2-.7 6-1.3 6-2.1 0-.4-3.5-2.4-7.9-4.4-14.4-6.6-31.1-12.3-31.1-10.7 0 .5.9 1.2 2.1 1.5 1.1.4 1.9.9 1.7 1.1-.7.6-30.2-6.8-31.7-8-1.1-.9-.7-1.2 2-1.7l3.4-.5-4.5-1.2c-2.5-.7-7.3-1.9-10.7-2.8-3.5-.9-6.3-2-6.3-2.4 0-.4 1.4-1.3 3-2 2.4-1 4.3-1 8.7-.1 3.1.6 5.8 1 5.9.8.2-.2-7-2.8-15.9-5.7-15.3-5.2-16.5-5.8-21.9-10.9-3.2-2.9-5.6-5.7-5.3-6.1.7-1.2-12.1-8-25.4-13.4-13.3-5.5-25.6-11.9-30.7-16.2l-2.9-2.5 7 .7c6.5.5 6.9.5 4.8-1-1.1-.9-3.3-2-4.8-2.6-2.3-.9-3.1-.7-4.7 1-2.2 2.3-3.1 2.5-4.7.7-.6-.8-2.8-1.9-4.9-2.5-4.1-1.2-17-11.5-31.7-25.3-5-4.6-14.3-11.9-20.6-16.2-11.2-7.6-11.6-8-15.4-15.5-3.9-7.7-6.8-11.1-9.4-11.2-1.1 0-1.2 1-.8 4.5.5 3.3.3 4.5-.6 4.5-2 0-10.8-6.3-17.2-12.3-5.6-5.4-5.8-5.7-4.2-7.5 3.5-3.9 2.3-5.9-8.1-12.6-5.3-3.4-12-8.1-14.9-10.4-5.1-4.1-14.8-15.4-17.3-20.1l-1.2-2.3 3.2 1.8c1.8 1.1 6.6 5 10.6 8.7 4.1 3.8 7.4 6.6 7.4 6.2 0-.4-1.7-3.7-3.7-7.3l-3.7-6.7 8.2 6.5c13.9 10.9 14.4 11 12.3 4-1-3.3-1.6-4-3.7-4-5.8 0-12.6-5.9-27.3-23.4-14.9-17.8-21-23.6-24.9-23.6-2.2 0-3.1-.6-3.6-2.3-.3-1.2-.1-2.3.4-2.5 1.2-.4-1.1-6.1-4-10.2-1.2-1.6-5.1-4.6-8.8-6.7-9-5-14.5-10.9-19.2-20.7-4.8-9.8-5.1-12.3-1-7.6 1.6 1.9 2.9 3 2.9 2.5 0-.6-4.2-6.4-9.4-13s-9.5-12.5-9.5-13c0-.6.9.1 2 1.5 3.3 4.3 2.2 1.2-2.3-6.3-7.2-12-12.7-22.4-12.1-23 .3-.3-1.4-2.5-3.8-4.9-6.4-6.4-11.3-12.9-9.2-12.1 2.3.9 1.8-.3-4-9.7-4.5-7.3-5.5-10-3.7-10 1 0 8.6 11.1 11.7 17l1.8 3.5.9-3.2c1.6-5.3 0-11.7-4.7-18.5-2.4-3.5-5.2-8.1-6.3-10.3-2.2-4.3-6.6-17.6-6-18.2.2-.2 1.8 2.4 3.6 5.7 1.8 3.3 3.7 5.8 4.2 5.5 1.5-1 1-10.4-1.2-20.5-1.1-5.2-2.8-13.5-3.8-18.3-.9-4.8-2-8.5-2.4-8.1-.4.4-.7 6.4-.7 13.3s-.4 13.2-.9 14c-1.5 2.4-3.9-.5-5.7-6.8-.8-3.1-2.8-8.8-4.4-12.6-1.7-4.2-2.8-8.8-2.8-11.6 0-3.7-2.5-14.4-4.9-20.5-.3-1 .3-1.4 1.9-1.4 1.4 0 2.8-.3 3.1-.6.9-.9-2.7-5.8-10.4-13.9-6.1-6.6-6.6-7.4-7.2-12.8-.8-6.6-.4-9.4 2.5-15.9 1.6-3.6 1.9-5.6 1.4-9.2-.4-2.5-1.1-4.6-1.5-4.6-.4 0-1.5 1.9-2.4 4.2-1.1 2.8-2 3.9-2.7 3.2-1.3-1.3-3.4-11.2-5.5-25.4-1-6.3-3.3-18.3-5.2-26.5-1.9-8.3-3.6-18.2-3.9-22l-.6-7 2 2.4c3.3 4.1 3.3.7 0-6.9-2.5-5.5-2.9-7.3-1.9-8 1.8-1 .5-4.7-3-8.7-1.5-1.8-3.1-5-3.4-7-.4-2.1-1.1-5.1-1.7-6.6-1.4-3.6-.4-13.8 2.4-24.7 1.7-6.7 2.2-11.6 2.2-22.7.1-12.9.2-14 1.7-12.7 2.7 2.4 4 1.7 3.5-1.9-.3-1.7-1.5-13.9-2.7-27.1-1.8-18.5-2-24.7-1.2-27.5 3.6-11.7 6.4-20.4 8.6-26.5 1.9-5.3 2.3-7.2 1.4-8.1-.8-.9-1.6-1-2.4-.3-1 .8-1.3.2-1.3-2.6 0-2.6.4-3.6 1.5-3.6 1.3 0 1.5-.9.9-4.9-.5-4.2-.4-5 1.2-5.5 1.1-.4 3-1.5 4.4-2.5 2-1.6 2.2-2.2 1.2-3.4-1.1-1.3-.1-4.6 5.3-18.8l6.5-17.3v-12.1c0-12.1 2.1-37.7 3.9-47.2 1.8-9.3 7.7-31.7 8.9-33.7.3-.5.9 0 1.3 1.2.7 1.8 1.6 2.2 5.4 2.2 2.5 0 4.5.2 4.5.5s-1.4 2.9-3 5.9c-1.8 3.2-4.4 10.9-6.5 19.2-1.9 7.7-4.4 17-5.5 20.8-2.2 7.8-2 9.5.6 4.4 2.2-4.4 2.4-4.5 3.4-2.8 1.2 1.9 1 2.4 6-18.9 2.2-9.6 4.1-17.5 4.3-17.5 2.3-.7 4.9-3.6 8.4-9.2 2.3-3.8 4.3-7.2 4.3-7.5 0-.4-.9-.9-2-1.2-2.8-.7-2.5-3.7 1.4-13.7 7.4-18.9 13.1-31 13.7-29.2.8 2.2-1.6 10.5-4.7 16.1-2.5 4.5-2.5 6.3-.1 4.3 3.8-3.2 6.8-11.3 8.2-21.9 1.5-11.8 3.3-18.3 4.5-16.2.5.7 2.1-1.6 4.3-6.4 3.2-6.8 11.9-19.7 13.4-19.7.3 0 0 .7-.7 1.5-.7.9-1 1.8-.7 2.1.6.6 2.6-2.4 27.9-40.6 10.1-15.1 20.3-31.6 22.9-36.6l4.6-9.1 1.8 4.8c1.8 4.7 3.5 5.6 3.5 2 0-2.8 9.5-36.1 13.6-47.9 3.3-9.2 3.8-10.1 5.3-8.9.9.7 3.7 2.6 6.3 4 8.3 4.8 9.4 8.2 5.3 16.2-1.3 2.7-2.2 5.1-1.9 5.4.6.6 16.2-14.8 20.6-20.2 1.7-2.1 2.9-4 2.6-4.2-.2-.2-2 0-3.9.6-3.6 1.1-8.9-.1-8.9-2.1 0-.5 4.4-3.1 9.8-5.8 5.3-2.6 13.7-7 18.7-9.7 7.9-4.3 8.7-5 6.5-5.5-4.2-1-3.6-8.1 1-14l2-2.5 3 3.5c1.6 1.9 3 4.4 3 5.5 0 1.2 1.5-.5 3.8-4.5 2.1-3.6 5.6-9.3 7.8-12.7 3.6-5.7 4.1-6 5.9-4.7 1 .8 3.9 1.4 6.3 1.4 3.8 0 5.1-.7 10-4.8 3.1-2.7 7.3-5.9 9.2-7.2 5-3.3 14.2-11.2 13.7-11.6-.2-.3-1.7 0-3.2.6-2.2.8-1.6-.1 3.2-4.7 3.3-3.2 9.1-10.5 13-16.3 7-10.3 13-16.9 20.7-22.6 3.5-2.6 3.8-2.6 3.2-.8-.7 2.4.9 7.4 2.7 8.6 1.7 1.1 8.1 1 11.1-.2 1.8-.7 3.8-3.5 7.2-10.2 9.7-19.4 21.6-34.6 35.6-45.4 4.2-3.3 6.5-4.4 9.2-4.4 2.5 0 5.6-1.3 10.3-4.3 3.8-2.4 7.5-4.7 8.3-5.2.8-.5-1.6 2.7-5.5 7.1-17.4 19.8-30.7 34.6-38.9 43.1-4.9 5.2-8.7 9.5-8.5 9.7.9.9 12.9-2.3 17.7-4.8 3-1.5 5.6-2.5 5.9-2.2.5.5-5.9 5.4-10.9 8.4-5.6 3.3-2.6 3.1 5-.4 7.5-3.5 29-12.5 32.5-13.7.9-.4 1.7-1.3 1.7-2.1 0-1.8 8.6-9.1 18.2-15.6 6.2-4.2 8.5-6.6 7.4-7.8-.6-.6-14.7 7.6-30.6 17.7-6.8 4.4-12.6 7.8-12.9 7.6-1-1.1 5.5-9.8 11.3-15.3 9.8-9.1 33.4-22.2 40.1-22.2 2 0 1.9 3.7-.1 8.5-2.6 6.3-1.6 6.8 5.1 2.7 6.6-4.2 18.4-9.6 19.1-8.9.3.3-1.1 1.5-3.1 2.7-2 1.2-3.4 2.4-3.1 2.7 1.3 1.4 14.7-4.7 22.9-10.3 8.4-5.8 16-7.6 33.5-7.9 8.5-.2 15.7-.7 16-1 .4-.4-.2-1.2-1.2-1.9-8.5-5-15.6-16.2-15.6-24.7 0-2.8.6-5.1 1.4-5.9.9-.7 6.4-1.4 13.1-1.7l11.6-.6-.7 6.1c-.7 6.4 0 7.5 3.5 5.3 1.1-.7 1.1-1.6-.3-5.7-.9-2.6-1.6-5-1.6-5.2 0-.9 22.6.7 25.3 1.7 3.9 1.5 3.4 3.7-2.3 9.7-5.3 5.6-6.2 8.7-3.1 10.4 2.5 1.3 9.8 1.3 10.6 0 .4-.6-1-1-3.6-1-3.4 0-3.9-.2-3-1.4.6-.8 2.5-1.9 4.2-2.6 2.5-1.1 3.2-1 5 .6 2.6 2.3 9.3 2 12.6-.6 1.3-1 5-2.2 8.1-2.6 3.1-.4 6.6-1 7.7-1.4 1.7-.6 1.5-.9-1.5-1.5l-3.5-.9 4-.7c2.2-.4 8.3-.8 13.6-.8 11.8-.1 15.9-.8 15.2-2.7-1.3-3.3 12.9-11.6 26.1-15.2l6.9-1.8 2.5 2.3c2.4 2.2 3.2 2.3 16.6 2.3 13.6 0 41.1 1.8 62.4 4.1 11.9 1.3 21.8 4.6 21.5 7.3-.1 1.2.4 1.6 1.5 1.1 1-.3 5.3-.9 9.7-1.2 6.1-.4 8.5-.1 9.9 1 1.7 1.3 1.1 1.4-5.7.9-6.4-.4-7.7-.2-7.7 1 0 2.8 2.6 4.1 5.2 2.6 1.7-1 7-1.2 21.2-1.1 16.5.2 18.7.1 17.6-1.2-2.6-3.2-11.1-4.7-28.3-5.2-14.5-.5-16.6-.7-15.5-2 3.9-4.7 18.3-8.3 36.4-9 21.3-.9 39.9 2.2 39.2 6.4-.5 2.9 17.9 6.2 41.2 7.3 21.1 1 30.6 2.8 40.2 7.5 6.3 3.2 10.8 7.2 10.8 9.7 0 1-.4 1.8-.9 1.8-.4 0-2 1.2-3.4 2.6l-2.6 2.6-5.3-1.7c-2.9-1-10.5-4.1-16.8-7.1-14.7-6.8-22-9.6-22-8.5 0 .5 2.9 2.1 6.5 3.7 3.5 1.5 6.3 3 6.1 3.1-.6.7-16-2.9-21-4.8-2.7-1-5.2-1.6-5.4-1.4-1 1 13 6.7 26.8 10.9 33.3 10.2 63.6 22.2 84.4 33.4 7 3.8 20.7 7.4 22.2 5.9 1.5-1.4-.8-3.6-5.6-5.3-5.3-1.9-8.6-4.4-5.8-4.4.8 0 4.1.5 7.2 1.2 4.3.8 6 .8 6.5 0 .7-1.2 18.2 4.2 31.3 9.8 10 4.3 19.8 10.7 19.8 13.1 0 1.1-.2 1.9-.4 1.9s-3.4-2-7-4.5c-3.7-2.5-7.3-4.6-7.9-4.6-2.4-.3-5.2.3-6.2 1.2-.6.6.3.7 2.2.3 3.8-.8 9.3 2.1 16.9 8.9 9.4 8.3 20.3 14.6 25.4 14.7 2.2 0 2-.5-3-5.6-6.2-6.4-6.2-6.4 8.5-.7 13.5 5.3 24.3 10.6 31.5 15.7 3.5 2.5 6.6 4.3 6.8 4.1.7-.7-2.2-5.1-5.7-8.5-2-1.9-4.6-4.9-5.9-6.5-1.3-1.7-2.1-2.2-1.8-1.3.9 3.1-1.6 2.1-13.1-5.1-16.4-10.2-15.7-9.5-13.8-11.5 1.6-1.5 1.2-1.8-4.2-4.2-3.2-1.4-6.7-3-7.8-3.5-1.1-.5-.7.1.9 1.3 1.6 1.3 4.3 3.5 6 5l3.1 2.7-3.8-1.3c-2.1-.7-5.7-3.1-8-5.3-2.3-2.2-5.8-5.1-7.7-6.4-1.9-1.3-7.4-5.7-12.2-9.7-5.5-4.5-8.8-6.7-8.8-5.7 0 1.3-.7 1.2-4.2-.6-4.3-2.2-13.1-5.1-14.5-4.7-1.3.3-6.3-2.4-5.8-3.2.5-.8-10.8-6-12.8-6-.7 0 1.5 1.5 4.8 3.3 3.3 1.8 7.8 4.5 10 6s4.2 2.2 4.5 1.7c.3-.6 2.1.5 3.9 2.4l3.3 3.4-4.3-.9c-2.4-.6-8.2-2.4-12.9-4-4.7-1.7-13.2-4.7-19-6.7-6.9-2.4-9.7-3.8-8.2-4 4.4-.7 1.5-2.7-5.9-4.1-7-1.4-7.7-1.8-12.4-6.9l-5-5.5 5.5.6c5.5.7 5.4.7-5-3.6-5.8-2.4-12.9-5.6-15.9-7.1-12.6-6.4-32.6-12.7-49.1-15.4-8.6-1.4-35.2-7.2-38.5-8.4-6-2.1-15.4-3.8-38.5-6.8-29.7-3.8-25.8-3.2-44.5-7.5l-16-3.7-28.8-.3c-27.4-.3-29-.4-31-2.3-2.1-1.9-3.6-2.1-27.2-2.2-13.7-.1-26.3-.1-28-.1-1.6.1-10-.1-18.5-.3-8.5-.3-17.1-.1-19 .4zm161.3 8.7c-.7.2-1.9.2-2.5 0-.7-.3-.2-.5 1.2-.5s1.9.2 1.3.5zM348.8 118.5c-2.4 2.4-15.4 11.5-16.5 11.5-4 0 .7-4.1 10.4-9 5.8-2.9 7.1-3.4 6.1-2.5zM34.9 598.1c1.1 3.4.9 4.1-1.7 8.3l-3 4.6-.6-3.1c-1.1-5.7-.7-11.2 1.1-13.1 1.9-2.2 2.6-1.6 4.2 3.3zm-8.3 3.4c2.4 5.9 1.8 12.7-1.7 18.7-1.7 2.9-3.2 5.4-3.3 5.5 0 .1 0-3.5.2-8 .2-7.8 2-19.7 2.9-19.7.2 0 1.1 1.6 1.9 3.5zm7.8 22.3c.9 1.8 2.3 3.2 3 3.2.8 0 1.7.7 2 1.6.5 1.3.9 1.4 2.1.4 2-1.7 2-1.4-1.6 7.8-3.9 10.2-5.4 11.7-7.3 7-1.9-4.5-4.1-23.8-3.1-27.5l.7-2.8 1.3 3.6c.7 2 2 5 2.9 6.7zM81.5 1007c.4 1.1.2 2-.4 2-1.7 0-4.1-4.5-4.7-8.6l-.6-3.9 2.5 4.2c1.4 2.3 2.8 5.1 3.2 6.3zm1314.5 38.8c0 .5-1.2 1.9-2.7 3.3l-2.6 2.4 1.9-3.3c1.7-3 3.4-4.2 3.4-2.4zm-545.2 414.4c-1.7 1.4-3.1 4.8-2 4.8.4 0 4.1-.9 8.2-2 10.5-2.8 10.7-2.4 1 1.6-10.9 4.6-20.4 7-30.5 7.8l-8 .6 5-2.4c2.8-1.4 5.8-2.5 6.8-2.5.9-.1 1.7-.6 1.7-1.1 0-1.4-4.6-1.2-13.4.6-4.2.8-8.6 1.4-9.8 1.1-4.8-.8 4.8-3.6 19.8-5.6 8.2-1.2 16.3-2.5 17.9-3 4.3-1.3 5.1-1.3 3.3.1z"></path><path d="M837 1468c-1.2.8-1.2 1 .5.9 1.1 0 2.9-.4 4-.9 1.8-.8 1.8-.9-.5-.9-1.4 0-3.2.4-4 .9zM862.6 37.8c-1.5 2.5 10.8 5.1 17.8 3.8 5.8-1.1 4.2-2.3-4.1-3-4.2-.4-8.8-1-10.3-1.3-1.5-.3-3 0-3.4.5zM869.5 54.9c-5.3 1.1-.9 2.4 10.2 2.9 10.4.5 12.8-.3 7.8-2.6-2.7-1.3-12.9-1.4-18-.3zM929.3 62.9c-1 2.8-.9 2.9 2.6 3.5 7.5 1.2 7.9.9 3.7-2.9-2.1-1.9-4.1-3.5-4.5-3.5-.4 0-1.2 1.3-1.8 2.9zM1033 64.9c0 .7 2.6 2.4 5.7 3.7 4.7 2.1 6.5 2.4 9.6 1.7 4.9-1 4.9-2.5.1-4.1-5.7-1.9-15.4-2.8-15.4-1.3zM1069 103.4c0 .9 16.2 10.6 17.8 10.6 1 0 4.7 1.6 8.2 3.5 3.6 1.9 6.9 3.5 7.5 3.5 2.3 0-3.1-3.4-16.7-10.4-13.4-6.9-16.8-8.4-16.8-7.2zM1110 129.7c.1 1 13.2 10.4 13.8 9.8.8-.8-1.1-2.6-6.1-5.8-7.6-4.8-7.7-4.9-7.7-4zM1144 137.3c0 1.9 3.5 4.8 11.5 9.6 6.8 4.1 7 4.1 7.7 2 1.2-3.1-1.3-5.5-9.7-9.5-7.6-3.7-9.5-4.1-9.5-2.1zM1140.2 148.5c4.4 4.1 6.3 4.5 5.4 1.2-.3-1.2-.6-2.8-.6-3.5 0-.8-1.5-1.2-4.2-1.2l-4.3.1 3.7 3.4zM1188 148.7c0 1.2 5.3 6.3 6.6 6.3 1.9 0 3.7-2.7 2.2-3.3-.7-.3-3-1.2-5-2.1-2.1-.9-3.8-1.3-3.8-.9zM1166 152.5c0 .8 7.4 5.5 8.8 5.5 2.1 0 .4-1.9-3.8-4-4-2-5-2.3-5-1.5zM371.3 155c-2.3 1-4.3 1.6-4.6 1.4-.3-.3-3.3 2.1-6.8 5.4-4.5 4.2-6.1 6.3-5.6 7.5 1.7 4.4 12.7-.5 15.3-6.9.9-2.2 2.8-4.1 5.3-5.4 2.2-1.1 4.2-2.4 4.6-3 1-1.6-3.6-1-8.2 1zM1171.7 172.4c-.4 1 1.7 2.6 6.9 5.2 4.6 2.3 7 4 6.3 4.5-2 1.2-.2 3.9 2.7 3.9 4.7 0 14.6 6.2 22.2 13.8 8.3 8.4 12 10.2 15.6 7.9 1.4-.9 2.6-3 3-4.9.7-3.6-.9-14-2.6-17.3-.6-1.2.4-.6 2.8 1.6 2.2 1.9 8.9 8 14.9 13.5 6.1 5.5 15.5 14.4 21 19.7 9.6 9.4 9.8 9.6 5.5 7.7-10.4-4.6-13.5-.9-5.4 6.6 4.2 3.8 20.4 13.1 20.4 11.6 0-.3-1.5-2.1-3.2-4-1.9-1.9-2.6-3-1.5-2.7 1 .5 1.7.2 1.7-.5 0-2.4 10.6 8.4 20.8 21.3 9.6 12.1 29 32.2 30.1 31.1.3-.2 0-.9-.6-1.5s-.9-1.7-.7-2.4c.3-.7-1.6-2.6-4.3-4.3-5.7-3.7-15.9-14.8-14.1-15.4 2.1-.7-1.2-4.6-12.4-14.8-11.3-10.2-18.4-18.8-22.4-26.8-1.4-2.8-3.2-5.6-4-6.3-2.6-2.1-2.8 0-.4 3.3l2.3 3.2-2.9-2.1c-9.5-7-20.6-17.8-26.7-26.3-5.3-7.3-7.9-10.1-11.4-11.9-7.3-3.7-12.1-5.2-12.6-3.8-.2.7-3.2-.3-8.2-2.6-4.3-2.1-7.9-3.6-8.1-3.4-.2.2 3 4.3 7.2 9.3 11.6 13.7 12 15.7 1.8 8-6.8-5-9.1-7.4-12.9-13.5-1.9-3.1-2.9-4-3.5-3.1-.6 1.1-2.9.5-10.4-2.3-10.1-3.9-16-4.7-16.9-2.3zM1211.5 172c1.2 1.9 10.4 6 13.5 6 5.3 0 3.2-1.8-5.1-4.5-9.1-2.8-9.2-2.9-8.4-1.5z"></path><path d="M1234 221.2c0 1.3 7.6 8.8 8.9 8.8.5 0 1.1-.7 1.4-1.5.4-.9-1-2.8-3.5-5-4.2-3.5-6.8-4.5-6.8-2.3zM1292 237.5c0 .7 11.8 8.5 12.9 8.5 1.3 0 12.2 13.6 16.3 20.2 4.1 6.6 7.7 7.4 6.2 1.3-.4-1.7-.2-2.5.7-2.5.7 0-.9-2.3-3.6-5.1-5-5.1-18.5-15.9-19.9-15.9-.4 0-3-1.6-5.9-3.5-4.9-3.3-6.7-4.1-6.7-3zM206.1 280.6c.1 6.4 1.5 19.9 1.7 17.3.4-3.6 6.5-14 10.3-17.4 2.3-2 3.8-3.9 3.5-4.2-.3-.3-3.9-.8-8.1-1.1l-7.5-.5.1 5.9zM1301.2 276.8c.2.4 1.4 3.3 2.7 6.5 1.7 3.8 3 5.6 3.8 5.3.7-.3 3 1.2 4.9 3.4 2.3 2.5 4.5 4 6 4 1.3 0 2.4-.3 2.4-.8 0-1-18.3-19.2-19.4-19.2-.4 0-.6.4-.4.8zM1345 298.6c0 .5 2.2 2.4 4.8 4.1 2.6 1.8 5.7 4 7 4.9 1.2.9 2.5 1.5 2.7 1.2.3-.2-1.7-2-4.3-4-6.8-5.1-10.2-7.2-10.2-6.2zM1348 311.6c0 .6 1.8 3.5 4 6.5s4.7 6.9 5.7 8.6c.9 1.8 2 3.3 2.4 3.3.8 0-.7-8.5-2.2-12.3-1.6-3.8-3.3-3.5-2.5.5.7 3.7.6 3.6-3.9-2.8-1.9-2.7-3.5-4.4-3.5-3.8zM1355 332.8c0 .5 1.2 1.9 2.6 3.3 1.4 1.3 4.6 5.9 7.1 10.1 4.2 7.2 4.7 7.7 7.3 7.1 2.4-.4 3.1-.1 4.4 2.6 2.2 4.1 7.5 10.1 9 10.1.7 0 2.7 1.8 4.5 4.1 1.8 2.2 3.5 3.8 3.8 3.6.2-.3-.9-3.7-2.6-7.7-1.7-4-3.1-7.8-3.1-8.6 0-.8-.4-1.4-1-1.4-.5 0-1 1.7-1 3.7v3.8l-5.4-6c-3-3.3-5.8-6-6.3-6-1.1 0-15.3-15.5-15.3-16.6 0-.5-.9-1.3-2-1.9-1.1-.6-2-.7-2-.2zM1358.7 344.4c-.4 1-.7 5.3-.7 9.7 0 7.8.1 8.1 3.4 11.2 1.8 1.8 4.2 4.5 5.2 6.1l1.8 2.9-2.7-.5c-3.1-.6-3.9 1.6-.9 2.5.9.4 2.9 1.6 4.4 2.8 1.5 1.3 3 2 3.4 1.7.8-.9-1.5-7.9-3.2-9.9-1.6-1.8-6.9-15.9-8.8-23.3-.9-3.5-1.5-4.4-1.9-3.2zM1379 379.9c0 6 3.8 9.9 6.7 7 .7-.7 2.1-.1 4.7 2.1 5.3 4.7 4.4 2.6-2-4.6-5.6-6.4-9.4-8.2-9.4-4.5zM1420.1 432.2c1.4 1.9 2.2 4.3 2.1 5.9-.2 1.5.3 3.1 1 3.6.7.4 2.9 2.7 4.7 5.1 4.9 6.3 5 4.3.2-3.2-2.2-3.6-4.1-7.2-4.1-7.9 0-1.8-3.8-6.7-5.1-6.7-.6 0 0 1.4 1.2 3.2zM1410.1 430.5c.7 1.9 16.4 22.4 16.8 22 .7-.8-9.8-16-13.5-19.5-2-1.9-3.5-3.1-3.3-2.5zM1428.4 436.7c.6 4.4 8.2 18.1 9.3 16.9.3-.3-.1-2.9-.8-5.8-.7-2.9-1.3-5.8-1.3-6.3-.2-2.2-5.1-9.5-6.4-9.5-1.2 0-1.3 1-.8 4.7zM1434.4 459.6c.3 1.1 1 3.9 1.5 6.4l1 4.5-2.9-3.5c-4.1-4.8-3.7-2.9 1.3 6.4 4.6 8.8 6.7 10.5 6.7 5.7 0-3.4-5.7-19.8-7.2-20.7-.6-.4-.8.1-.4 1.2zM1444 477.5c0 1.6 6.3 13.4 6.9 13 .5-.3 1.2.1 1.4.7.3.7.6.1.6-1.4.1-1.5-.5-3.1-1.2-3.5-.7-.4-2-2.6-2.8-4.7-.8-2.2-2.2-4-3.2-4.2-.9-.1-1.7-.1-1.7.1zM1443.7 537.7c.5 4.7 4.9 16.1 5.8 15.1.6-.5-2.1-12.7-3.7-17.1-1.6-4.2-2.6-3.2-2.1 2zM1451.2 542.8c.3 3.2 3.3 13.7 6.7 23.7 3.6 10.6 6.4 20.6 6.8 24.2.5 5.3 1 6.6 3.9 9.4 1.9 1.8 3.6 3 4 2.7.8-.8-2.2-11.1-11.8-40.5-4.6-13.9-8.7-25.3-9.2-25.3s-.6 2.6-.4 5.8zM1472 627.1c0 2.6 4.1 13.7 5.6 15 2.1 1.8 1.7 0-2.1-8.7-1.9-4.3-3.5-7.2-3.5-6.3zM1495 754.3c0 2.5 1.7 4.7 3.7 4.7 1.4 0 1.7-2.7.7-5.4-1-2.6-4.4-2-4.4.7zM1487.8 765.7c-.2 3.8-.3 6.9-.2 7.1.3.6 6.4-3.3 6.4-4.1 0-1.2-3.9-8.5-4.9-9.1-.5-.4-1.1 2.3-1.3 6.1zM1494.7 791.8c-1.8 5-2.3 11.2-.8 11.2.9 0 3.7-14.7 2.9-15.5-.2-.2-1.2 1.7-2.1 4.3zM1482.7 862c-1.3 8-1.5 11-.7 10.5 1-.6 2.4-10.8 1.7-12.7-.2-.7-.7.3-1 2.2zM72.4 954.6c1.1 9.1 2.5 10 2.6 1.6 0-6-.3-7.2-1.6-7.2-1.4 0-1.6.8-1 5.6zM147.7 1128.7c-.9 1.7-1.7 8.3-1 8.3.4 0 1.6-1.2 2.6-2.5 1.4-1.9 1.5-2.9.7-4.5-1.2-2.2-1.6-2.4-2.3-1.3zM1326.6 1152.6c-.4 1-.1 1.4.6 1.2 1.5-.5 2.3-2.8 1-2.8-.5 0-1.3.7-1.6 1.6zM246.1 1243.6c1.9 2.2 5 6.1 6.8 8.7 3.3 4.9 4.8 5.7 5.7 3.3.4-.9-2.1-4-6.6-8.3-8.1-7.7-11.3-9.6-5.9-3.7z"></path></svg></g><g id="headline" transform="matrix(1,0,0,1,12.130603790283203,0)"><text data-font-id="1389" font-family="octinspraypaint_a_regular" id="headline_0" transform="matrix(1,0,0,1,0,22.843333333333334)" svgjs:data="{&quot;leading&quot;:&quot;1.3&quot;}"><tspan id="headline_0_word_0" fill="#ffffff" svgjs:data="{&quot;leading&quot;:&quot;1.3&quot;}">new</tspan></text><text data-font-id="1390" font-family="octinspraypaint_a_bold" id="headline_1" transform="matrix(1,0,0,1,0,35.58362586466472)" svgjs:data="{&quot;leading&quot;:&quot;1.3&quot;}"><tspan id="headline_1_word_0" fill="#ff0000" svgjs:data="{&quot;leading&quot;:&quot;1.3&quot;}">movie</tspan></text></g><g id="symbols" transform="matrix(1.1428571104864251,0,0,1.1428571104864251,-30.267916604275392,29.99212717535221)"><text data-font-id="1389" font-family="octinspraypaint_a_regular" id="symbols_0" transform="matrix(1.4969534511886537,0,0,1.4969534511886537,-4.845296149089375,2.7953631629361766)" svgjs:data="{&quot;leading&quot;:&quot;1.3&quot;}"><tspan id="symbols_0_word_0" fill="#ff0000" svgjs:data="{&quot;leading&quot;:&quot;1.3&quot;}">NM</tspan></text></g></g><defs><style>@font-face {font-family: octinspraypaint_a_regular;src: url(https://pismo.tailorbrands.com/v2/px_fonts/octinspraypaint_a_regular)}</style><style>@font-face {font-family: octinspraypaint_a_bold;src: url(https://pismo.tailorbrands.com/v2/px_fonts/octinspraypaint_a_bold)}</style></defs></svg>
